# 3ds Max Wavefront OBJ Exporter v0.99 - (c)2007 guruware
# File Created: 24.03.2023 01:30:34

mtllib Imaroom.mtl

#
# object Pics
#

v  2.3219 0.5767 -0.7703
v  2.3155 0.0057 -0.5936
v  2.8051 0.0067 -0.5977
v  2.8208 0.5777 -0.7800
v  2.8202 0.5737 -0.7922
v  2.3213 0.5727 -0.7826
v  2.8045 0.0026 -0.6099
v  2.3150 0.0016 -0.6059
v  2.9171 0.5892 -0.7737
v  2.9222 0.0040 -0.6374
v  3.4067 0.0041 -0.6539
v  3.4015 0.5893 -0.7902
v  3.4008 0.5856 -0.8064
v  2.9164 0.5855 -0.7899
v  3.4060 0.0003 -0.6700
v  2.9215 0.0002 -0.6535
v  4.2085 1.9281 -0.3370
v  4.1032 1.8763 -0.3991
v  4.1673 1.5281 -0.2797
v  4.1377 1.3478 -0.4096
v  3.9061 1.7718 -0.5101
v  4.1809 1.9106 -0.4088
v  4.3922 1.4598 -0.3156
v  4.3787 1.4607 -0.2803
v  4.1352 1.3500 -0.3620
v  4.3048 1.9810 -0.3228
v  4.3183 1.9800 -0.3581
v  3.8926 1.7727 -0.4818
# 28 vertices

vn 0.0126 0.2996 0.9540
vn -0.0079 0.9503 -0.3112
vn 0.9987 -0.0381 -0.0331
vn 0.0045 -0.9503 0.3113
vn -0.9990 0.0229 0.0381
vn 0.0331 0.2270 0.9733
vn -0.0079 0.9739 -0.2269
vn 0.9991 -0.0010 -0.0420
vn 0.0079 -0.9739 0.2269
vn -0.9991 0.0010 0.0419
vn -0.2313 0.1349 0.9635
vn -0.5096 0.1934 0.8384
vn -0.3527 -0.0995 0.9304
vn 0.3570 -0.0260 -0.9337
vn 0.3571 -0.0258 -0.9337
vn 0.3570 -0.0259 -0.9337
vn 0.3738 -0.9212 0.1080
vn 0.9236 0.1598 0.3484
vn -0.4160 0.9054 -0.0848
vn -0.3946 0.9061 -0.1527
vn -0.3976 0.9074 -0.1366
vn -0.8440 -0.5132 -0.1558
vn -0.0767 -0.1041 0.9916
vn -0.0392 0.1064 0.9936
vn -0.5255 0.1069 0.8441
vn -0.4366 -0.3112 0.8441
vn -0.4334 0.8969 -0.0884
vn -0.4406 0.8926 -0.0959
vn 0.3572 -0.0256 -0.9337
# 29 vertex normals

vt 0.4554 0.5044 0.0000
vt 0.4461 0.0022 0.0000
vt 0.8573 0.0005 0.0000
vt 0.8747 0.5041 0.0000
vt 0.8293 0.5944 0.0000
vt 0.4101 0.5875 0.0000
vt 0.4105 0.5766 0.0000
vt 0.8297 0.5836 0.0000
vt 0.8779 0.5243 0.0000
vt 0.3741 0.5200 0.0000
vt 0.3741 0.5091 0.0000
vt 0.8779 0.5135 0.0000
vt 0.4146 0.6036 0.0000
vt 0.8257 0.6154 0.0000
vt 0.8258 0.6263 0.0000
vt 0.4147 0.6145 0.0000
vt 0.0005 0.5311 0.0000
vt 0.5027 0.5226 0.0000
vt 0.5027 0.5335 0.0000
vt 0.0005 0.5420 0.0000
vt 0.0005 0.5057 0.0000
vt 0.0005 0.0008 0.0000
vt 0.4078 0.0005 0.0000
vt 0.4078 0.5054 0.0000
vt 0.4371 0.6678 0.0000
vt 0.8444 0.6666 0.0000
vt 0.8444 0.6806 0.0000
vt 0.4371 0.6817 0.0000
vt 0.4240 0.0005 0.0000
vt 0.4240 0.5054 0.0000
vt 0.4101 0.5054 0.0000
vt 0.4101 0.0005 0.0000
vt 0.4281 0.6396 0.0000
vt 0.8354 0.6408 0.0000
vt 0.8354 0.6547 0.0000
vt 0.4281 0.6536 0.0000
vt 0.4420 0.0005 0.0000
vt 0.4420 0.5054 0.0000
vt 0.4281 0.5054 0.0000
vt 0.4281 0.0005 0.0000
vt 0.4169 0.9894 0.0000
vt 0.3126 0.9834 0.0000
vt 0.2448 0.6755 0.0000
vt 0.5712 0.9768 0.0000
vt 0.5499 0.7043 0.0000
vt 0.7295 0.7071 0.0000
vt 0.7335 0.9877 0.0000
vt 0.8692 0.3149 0.0000
vt 0.9550 0.0815 0.0000
vt 0.9850 0.0925 0.0000
vt 0.9095 0.3171 0.0000
vt 0.8524 0.5681 0.0000
vt 0.4059 0.5732 0.0000
vt 0.4056 0.5412 0.0000
vt 0.8520 0.5361 0.0000
vt 0.0722 0.6996 0.0000
vt 0.1024 0.9725 0.0000
vt 0.0763 0.9772 0.0000
vt 0.0491 0.7682 0.0000
vt 0.8557 0.6267 0.0000
vt 0.9691 0.2165 0.0000
vt 0.9941 0.2239 0.0000
vt 0.8955 0.6305 0.0000
vt 0.3948 0.5472 0.0000
vt 0.5142 0.9995 0.0000
vt 0.1040 0.9713 0.0000
vt 0.1568 0.5406 0.0000
vt 0.0185 0.6599 0.0000
vt 0.0260 0.5664 0.0000
vt 0.0577 0.5631 0.0000
vt 0.8192 0.7086 0.0000
# 71 texture coords

o Pics
g Pics
usemtl Material__653
s off
f 1/1/1 2/2/1 3/3/1 4/4/1 
f 1/5/2 4/6/2 5/7/2 6/8/2 
f 4/9/3 3/10/3 7/11/3 5/12/3 
f 3/13/4 2/14/4 8/15/4 7/16/4 
f 2/17/5 1/18/5 6/19/5 8/20/5 
f 9/21/6 10/22/6 11/23/6 12/24/6 
f 9/25/7 12/26/7 13/27/7 14/28/7 
f 12/29/8 11/30/8 15/31/8 13/32/8 
f 11/33/9 10/34/9 16/35/9 15/36/9 
f 10/37/10 9/38/10 14/39/10 16/40/10 
f 17/41/11 18/42/12 19/43/13 
f 20/44/14 21/45/14 22/46/15 23/47/16 
f 20/48/17 23/49/17 24/50/17 25/51/17 
f 26/52/18 24/53/18 23/54/18 27/55/18 
f 22/56/19 21/57/20 28/58/20 18/59/21 
f 25/60/22 28/61/22 21/62/22 20/63/22 
f 24/64/23 26/65/24 17/41/11 19/43/13 
f 28/66/25 25/67/26 19/43/13 
f 19/43/13 25/67/26 24/64/23 
f 17/68/27 26/69/28 27/70/28 22/56/19 
f 18/42/12 28/66/25 19/43/13 
f 22/46/15 27/71/29 23/47/16 
f 22/56/19 18/59/21 17/68/27 
# 17 polygons - 6 triangles

#
# object Room_2
#

v  4.2330 0.0034 0.6563
v  4.1652 0.0034 -0.8249
v  3.0423 0.0034 0.6655
v  3.0423 2.5357 0.6655
v  3.0423 2.1720 0.6655
v  2.2881 2.1720 0.6714
v  2.2881 2.5357 0.6714
v  4.1837 1.4195 -0.4218
v  4.1837 2.1240 -0.4218
v  4.1652 2.5357 -0.8249
v  4.2330 2.5357 0.6563
v  4.2127 2.1240 0.2117
v  4.2127 1.4195 0.2117
v  2.2381 2.5357 -0.7876
v  2.2381 0.0034 -0.7876
v  2.2881 0.0034 0.6714
v  4.3901 1.4195 -0.4222
v  4.3883 2.1240 -0.4222
v  4.4152 2.1240 0.2115
v  4.4170 1.4195 0.2114
v  2.2881 0.0034 0.7746
v  3.0423 0.0034 0.7711
v  2.2881 2.1720 0.7717
v  3.0423 2.1720 0.7683
v  2.1041 2.5357 0.7721
v  3.0116 2.5357 0.7679
v  2.0440 2.5357 -0.9631
v  4.4374 2.5356 0.7614
v  4.3625 2.5357 -1.0078
v  2.0440 0.0034 -0.9631
v  2.1041 0.0034 0.7754
v  4.4440 0.0034 0.7647
v  4.3689 0.0034 -1.0075
# 33 vertices

vn 0.0000 1.0000 -0.0000
vn -0.0078 0.0000 -1.0000
vn -0.9990 -0.0000 0.0457
vn -0.9990 0.0000 0.0457
vn 0.9994 0.0000 -0.0342
vn -0.0078 -0.0000 -1.0000
vn 0.0194 0.0000 0.9998
vn 0.0000 0.0000 1.0000
vn 0.0000 -1.0000 -0.0000
vn 0.0000 0.0000 -1.0000
vn 1.0000 0.0000 -0.0000
vn -1.0000 -0.0000 0.0000
vn 0.9982 -0.0374 -0.0460
vn 0.0078 -0.0021 1.0000
vn -0.9994 0.0000 0.0346
vn 0.0120 0.0000 0.9999
vn 0.0033 0.0021 1.0000
vn 0.0077 -0.0021 1.0000
vn 0.9973 -0.0002 -0.0740
vn 0.9999 0.0036 -0.0132
vn 0.9991 0.0148 -0.0409
vn -0.0193 -0.0000 -0.9998
# 22 vertex normals

vt 0.2467 0.8158 0.0000
vt 0.2601 0.5249 0.0000
vt 0.4806 0.8177 0.0000
vt 0.2389 0.9995 0.0000
vt 0.2389 0.9281 0.0000
vt 0.3871 0.9281 0.0000
vt 0.3871 0.9995 0.0000
vt 0.3106 0.0005 0.0000
vt 0.3899 0.2786 0.0000
vt 0.3899 0.3821 0.0000
vt 0.3106 0.4979 0.0000
vt 0.6018 0.4979 0.0000
vt 0.5144 0.3821 0.0000
vt 0.5144 0.2786 0.0000
vt 0.6018 0.0005 0.0000
vt 0.0205 0.4979 0.0000
vt 0.0205 0.4264 0.0000
vt 0.3073 0.4979 0.0000
vt 0.0051 0.5021 0.0000
vt 0.2389 0.5021 0.0000
vt 0.6070 0.0005 0.0000
vt 0.9856 0.0005 0.0000
vt 0.9856 0.4979 0.0000
vt 0.6070 0.4979 0.0000
vt 0.0205 0.0005 0.0000
vt 0.3073 0.0005 0.0000
vt 0.6386 0.5322 0.0000
vt 0.6288 0.8188 0.0000
vt 0.0051 0.9995 0.0000
vt 0.2969 0.8213 0.0000
vt 0.4004 0.8213 0.0000
vt 0.4004 0.8598 0.0000
vt 0.2969 0.8598 0.0000
vt 0.6402 0.8188 0.0000
vt 0.6402 0.6944 0.0000
vt 0.6787 0.6944 0.0000
vt 0.6787 0.8188 0.0000
vt 0.2853 0.8213 0.0000
vt 0.2853 0.9248 0.0000
vt 0.2467 0.9248 0.0000
vt 0.2467 0.8213 0.0000
vt 0.6774 0.6624 0.0000
vt 0.6774 0.5380 0.0000
vt 0.7159 0.5380 0.0000
vt 0.7159 0.6624 0.0000
vt 0.6288 0.8388 0.0000
vt 0.4806 0.8377 0.0000
vt 0.0005 0.4264 0.0000
vt 0.0005 0.0005 0.0000
vt 0.6664 0.5340 0.0000
vt 0.6664 0.6822 0.0000
vt 0.6464 0.6822 0.0000
vt 0.6464 0.5340 0.0000
vt 0.2467 0.5021 0.0000
vt 0.6727 0.5021 0.0000
vt 0.6727 0.5221 0.0000
vt 0.2467 0.5221 0.0000
vt -0.5026 0.4531 0.0000
vt -0.5026 0.7999 0.0000
vt -0.5835 0.6927 0.0000
vt -0.5835 0.5682 0.0000
vt -0.2160 -0.0082 0.0000
vt -0.0377 -0.0082 0.0000
vt -0.0739 0.0632 0.0000
vt -0.2220 0.0632 0.0000
vt -0.0181 0.9908 0.0000
vt -0.3596 0.9908 0.0000
vt -0.3596 0.4934 0.0000
vt -0.0181 0.4934 0.0000
vt -0.0377 0.4892 0.0000
vt -0.0739 0.4892 0.0000
vt -0.2220 0.4892 0.0000
vt -0.4984 0.4892 0.0000
vt -0.4984 -0.0082 0.0000
vt -1.0000 0.8018 0.0000
vt -0.7219 0.6927 0.0000
vt -0.7219 0.5682 0.0000
vt -1.0000 0.4531 0.0000
vt -0.5026 0.4483 0.0000
vt -1.0000 0.4506 0.0000
vt -1.0000 -0.0082 0.0000
vt -0.5026 -0.0082 0.0000
# 82 texture coords

o Room_2
g Room_2
usemtl Material__652
s off
f 29/72/30 30/73/30 31/74/30 
f 32/75/31 33/76/31 34/77/31 35/78/31 
f 30/79/32 36/80/32 37/81/33 38/82/33 
f 39/83/33 40/84/33 41/85/32 29/86/32 
f 35/87/34 34/88/34 42/89/34 
f 39/83/33 38/82/33 37/81/33 40/84/33 
f 29/90/35 31/91/35 33/76/31 
f 30/79/32 29/86/32 41/85/32 36/80/32 
f 43/92/36 30/93/36 38/94/36 42/95/36 
f 44/96/34 43/97/34 42/89/34 
f 34/88/34 44/96/34 42/89/34 
f 30/73/30 43/98/30 44/99/30 31/74/30 
f 39/100/31 29/90/35 33/76/31 32/75/31 
f 37/101/37 36/102/37 45/103/37 46/104/37 
f 40/105/38 37/106/38 46/107/38 47/108/38 
f 41/109/39 40/110/39 47/111/39 48/112/39 
f 36/113/30 41/114/30 48/115/30 45/116/30 
f 31/74/30 44/99/30 49/117/30 50/118/30 
f 44/96/40 34/88/40 51/119/40 49/120/40 
f 34/121/38 33/122/38 52/123/38 51/124/38 
f 33/125/41 31/126/41 50/127/41 52/128/41 
f 32/75/30 35/78/30 53/78/30 54/75/30 
f 35/87/30 42/89/30 55/89/30 53/87/30 
f 38/82/30 39/83/30 56/83/30 57/82/30 
f 42/95/30 38/94/30 57/94/30 55/95/30 
f 39/100/30 32/75/30 54/75/30 56/100/30 
f 57/129/42 56/130/42 47/131/42 46/132/42 
s 1
f 54/133/43 53/134/43 51/135/43 52/136/43 
s off
f 53/137/44 55/138/44 58/139/44 59/140/44 
s 2
f 53/134/45 59/141/45 49/142/45 51/135/45 
s off
f 52/136/46 50/143/46 60/144/46 56/145/46 
s 2
f 52/136/47 56/145/47 54/133/47 
s off
f 56/130/48 60/146/48 48/147/48 47/131/48 
f 46/132/49 45/148/49 61/149/49 57/129/49 
f 61/149/50 45/148/50 48/147/50 60/146/50 
s 2
f 57/150/51 61/151/51 58/152/51 55/153/51 
# 30 polygons - 6 triangles

#
# object Pics001
#

v  2.3219 0.5767 -0.7703
v  2.3155 0.0057 -0.5936
v  2.8051 0.0067 -0.5977
v  2.8208 0.5777 -0.7800
v  2.8202 0.5737 -0.7922
v  2.3213 0.5727 -0.7826
v  2.8045 0.0026 -0.6099
v  2.3150 0.0016 -0.6059
v  2.9171 0.5892 -0.7737
v  2.9222 0.0040 -0.6374
v  3.4067 0.0041 -0.6539
v  3.4015 0.5893 -0.7902
v  3.4008 0.5856 -0.8064
v  2.9164 0.5855 -0.7899
v  3.4060 0.0003 -0.6700
v  2.9215 0.0002 -0.6535
v  4.2085 1.9281 -0.3370
v  4.1032 1.8763 -0.3991
v  4.1673 1.5281 -0.2797
v  4.1377 1.3478 -0.4096
v  3.9061 1.7718 -0.5101
v  4.1809 1.9106 -0.4088
v  4.3922 1.4598 -0.3156
v  4.3787 1.4607 -0.2803
v  4.1352 1.3500 -0.3620
v  4.3048 1.9810 -0.3228
v  4.3183 1.9800 -0.3581
v  3.8926 1.7727 -0.4818
# 28 vertices

vn 0.0126 0.2996 0.9540
vn -0.0079 0.9503 -0.3112
vn 0.9987 -0.0381 -0.0331
vn 0.0045 -0.9503 0.3113
vn -0.9990 0.0229 0.0381
vn 0.0331 0.2270 0.9733
vn -0.0079 0.9739 -0.2269
vn 0.9991 -0.0010 -0.0420
vn 0.0079 -0.9739 0.2269
vn -0.9991 0.0010 0.0419
vn -0.2313 0.1349 0.9635
vn -0.5096 0.1934 0.8384
vn -0.3527 -0.0995 0.9304
vn 0.3570 -0.0260 -0.9337
vn 0.3571 -0.0258 -0.9337
vn 0.3570 -0.0259 -0.9337
vn 0.3738 -0.9212 0.1080
vn 0.9236 0.1598 0.3484
vn -0.4160 0.9054 -0.0848
vn -0.3946 0.9061 -0.1527
vn -0.3976 0.9074 -0.1366
vn -0.8440 -0.5132 -0.1558
vn -0.0767 -0.1041 0.9916
vn -0.0392 0.1064 0.9936
vn -0.5255 0.1069 0.8441
vn -0.4366 -0.3112 0.8441
vn -0.4334 0.8969 -0.0884
vn -0.4406 0.8926 -0.0959
vn 0.3572 -0.0256 -0.9337
# 29 vertex normals

vt 0.0508 0.9799 0.0000
vt 0.0472 0.8291 0.0000
vt 0.1708 0.8281 0.0000
vt 0.1767 0.9793 0.0000
vt 0.7873 0.0343 0.0000
vt 0.7861 0.0954 0.0000
vt 0.7845 0.0954 0.0000
vt 0.7857 0.0342 0.0000
vt 0.7891 0.1079 0.0000
vt 0.7895 0.0345 0.0000
vt 0.7911 0.0345 0.0000
vt 0.7907 0.1079 0.0000
vt 0.2853 0.0956 0.0000
vt 0.2849 0.0356 0.0000
vt 0.2864 0.0355 0.0000
vt 0.2869 0.0955 0.0000
vt 0.9995 0.0131 0.0000
vt 0.9779 0.0831 0.0000
vt 0.9764 0.0826 0.0000
vt 0.9980 0.0126 0.0000
vt 0.9897 0.5250 0.0000
vt 0.9896 0.7247 0.0000
vt 0.8284 0.7247 0.0000
vt 0.8286 0.5249 0.0000
vt 0.9827 0.0001 0.0000
vt 0.9807 0.0594 0.0000
vt 0.9787 0.0593 0.0000
vt 0.9807 0.0000 0.0000
vt 0.2883 0.1078 0.0000
vt 0.2895 0.0342 0.0000
vt 0.2915 0.0343 0.0000
vt 0.2903 0.1079 0.0000
vt 0.7808 0.0934 0.0000
vt 0.7788 0.0341 0.0000
vt 0.7808 0.0340 0.0000
vt 0.7828 0.0933 0.0000
vt 0.3104 0.0271 0.0000
vt 0.2937 0.0988 0.0000
vt 0.2918 0.0983 0.0000
vt 0.3085 0.0266 0.0000
vt 0.9492 0.2431 0.0000
vt 0.9059 0.2499 0.0000
vt 0.8773 0.1300 0.0000
vt 0.3514 0.3724 0.0000
vt 0.3573 0.4826 0.0000
vt 0.2849 0.4797 0.0000
vt 0.2861 0.3664 0.0000
vt 0.8344 0.0003 0.0000
vt 0.8222 0.0341 0.0000
vt 0.8178 0.0325 0.0000
vt 0.8286 0.0000 0.0000
vt 0.9954 0.0980 0.0000
vt 0.9947 0.0334 0.0000
vt 0.9994 0.0334 0.0000
vt 1.0000 0.0980 0.0000
vt 0.7709 0.0737 0.0000
vt 0.7707 0.0340 0.0000
vt 0.7746 0.0337 0.0000
vt 0.7753 0.0642 0.0000
vt 0.7680 0.0508 0.0000
vt 0.7087 0.0344 0.0000
vt 0.7098 0.0308 0.0000
vt 0.7686 0.0450 0.0000
vt 0.9299 0.0791 0.0000
vt 0.9857 0.2438 0.0000
vt 0.8242 0.2579 0.0000
vt 0.8376 0.0779 0.0000
vt 0.7780 0.0802 0.0000
vt 0.7755 0.0936 0.0000
vt 0.7709 0.0936 0.0000
vt 0.2486 0.4782 0.0000
# 71 texture coords

o Pics001
g Pics001
usemtl Material__653
s off
f 62/154/52 63/155/52 64/156/52 65/157/52 
f 62/158/53 65/159/53 66/160/53 67/161/53 
f 65/162/54 64/163/54 68/164/54 66/165/54 
f 64/166/55 63/167/55 69/168/55 68/169/55 
f 63/170/56 62/171/56 67/172/56 69/173/56 
f 70/174/57 71/175/57 72/176/57 73/177/57 
f 70/178/58 73/179/58 74/180/58 75/181/58 
f 73/182/59 72/183/59 76/184/59 74/185/59 
f 72/186/60 71/187/60 77/188/60 76/189/60 
f 71/190/61 70/191/61 75/192/61 77/193/61 
f 78/194/62 79/195/63 80/196/64 
f 81/197/65 82/198/65 83/199/66 84/200/67 
f 81/201/68 84/202/68 85/203/68 86/204/68 
f 87/205/69 85/206/69 84/207/69 88/208/69 
f 83/209/70 82/210/71 89/211/71 79/212/72 
f 86/213/73 89/214/73 82/215/73 81/216/73 
f 85/217/74 87/218/75 78/194/62 80/196/64 
f 89/219/76 86/220/77 80/196/64 
f 80/196/64 86/220/77 85/217/74 
f 78/221/78 87/222/79 88/223/79 83/209/70 
f 79/195/63 89/219/76 80/196/64 
f 83/199/66 88/224/80 84/200/67 
f 83/209/70 79/212/72 78/221/78 
# 17 polygons - 6 triangles

#
# object Room_010
#

v  4.2330 0.0034 0.6563
v  4.1652 0.0034 -0.8249
v  3.0423 0.0034 0.6655
v  3.0423 2.5357 0.6655
v  3.0423 2.1720 0.6655
v  2.2881 2.1720 0.6714
v  2.2881 2.5357 0.6714
v  4.1837 1.4195 -0.4218
v  4.1837 2.1240 -0.4218
v  4.1652 2.5357 -0.8249
v  4.2330 2.5357 0.6563
v  4.2127 2.1240 0.2117
v  4.2127 1.4195 0.2117
v  2.2381 2.5357 -0.7876
v  2.2381 0.0034 -0.7876
v  2.2881 0.0034 0.6714
v  4.3901 1.4195 -0.4222
v  4.3883 2.1240 -0.4222
v  4.4152 2.1240 0.2115
v  4.4170 1.4195 0.2114
v  2.2881 0.0034 0.7746
v  3.0423 0.0034 0.7711
v  2.2881 2.1720 0.7717
v  3.0423 2.1720 0.7683
v  2.1041 2.5357 0.7721
v  3.0116 2.5357 0.7679
v  2.0440 2.5357 -0.9631
v  4.4374 2.5356 0.7614
v  4.3625 2.5357 -1.0078
v  2.0440 0.0034 -0.9631
v  2.1041 0.0034 0.7754
v  4.4440 0.0034 0.7647
v  4.3689 0.0034 -1.0075
# 33 vertices

vn 0.0000 1.0000 -0.0000
vn -0.0078 0.0000 -1.0000
vn -0.9990 -0.0000 0.0457
vn -0.9990 0.0000 0.0457
vn 0.9994 0.0000 -0.0342
vn -0.0078 -0.0000 -1.0000
vn 0.0194 0.0000 0.9998
vn 0.0000 0.0000 1.0000
vn 0.0000 -1.0000 -0.0000
vn 0.0000 0.0000 -1.0000
vn 1.0000 0.0000 -0.0000
vn -1.0000 -0.0000 0.0000
vn -0.0000 1.0000 0.0000
vn 0.0001 1.0000 -0.0000
vn 0.0000 1.0000 0.0001
vn 0.9991 0.0025 -0.0423
vn 0.0046 0.0013 1.0000
vn -0.9994 0.0000 0.0346
vn -0.0192 -0.0001 -0.9998
# 19 vertex normals

vt 0.8185 0.7473 0.0000
vt 1.0000 0.7556 0.0000
vt 0.8174 0.8932 0.0000
vt 0.0924 0.2876 0.0000
vt 0.0924 0.3322 0.0000
vt 0.0000 0.3322 0.0000
vt 0.0000 0.2876 0.0000
vt 0.5032 0.8174 0.0000
vt 0.3297 0.8668 0.0000
vt 0.2434 0.8668 0.0000
vt 0.1930 0.8174 0.0000
vt 0.1930 0.9990 0.0000
vt 0.2434 0.9445 0.0000
vt 0.3297 0.9445 0.0000
vt 0.5032 0.9990 0.0000
vt 0.9087 0.4732 0.0000
vt 0.8641 0.4732 0.0000
vt 0.9087 0.2944 0.0000
vt 0.2383 0.5979 0.0000
vt 0.0924 0.5979 0.0000
vt 0.5968 0.6216 0.0000
vt 0.3607 0.6216 0.0000
vt 0.3607 0.3114 0.0000
vt 0.5968 0.3114 0.0000
vt 0.5985 0.4732 0.0000
vt 0.5984 0.2944 0.0000
vt 0.9954 0.9917 0.0000
vt 0.8167 0.9856 0.0000
vt 0.2383 0.2876 0.0000
vt 0.1964 0.1100 0.0000
vt 0.1964 0.0237 0.0000
vt 0.2217 0.0237 0.0000
vt 0.2215 0.1100 0.0000
vt 0.1701 0.1014 0.0000
vt 0.1666 0.0238 0.0000
vt 0.1916 0.0237 0.0000
vt 0.1949 0.1013 0.0000
vt 0.2490 0.0237 0.0000
vt 0.2490 0.1100 0.0000
vt 0.2242 0.1100 0.0000
vt 0.2240 0.0237 0.0000
vt 0.9499 0.0776 0.0000
vt 0.9535 0.0000 0.0000
vt 0.9785 0.0000 0.0000
vt 0.9752 0.0777 0.0000
vt 0.8041 0.9856 0.0000
vt 0.8045 0.8932 0.0000
vt 0.8641 0.4855 0.0000
vt 0.5985 0.4859 0.0000
vt 0.6145 0.0313 0.0000
vt 0.7069 0.0306 0.0000
vt 0.7069 0.0432 0.0000
vt 0.6145 0.0436 0.0000
vt 0.9996 0.4998 0.0000
vt 0.7340 0.4998 0.0000
vt 0.7340 0.4869 0.0000
vt 0.9996 0.4872 0.0000
vt 0.6115 0.1709 0.0000
vt 0.6108 0.2633 0.0000
vt 0.5984 0.2858 0.0000
vt 0.5990 0.1747 0.0000
vt 0.7895 0.2694 0.0000
vt 0.8110 0.2932 0.0000
vt 0.7941 0.0333 0.0000
vt 0.6126 0.0250 0.0000
vt 0.5998 0.0000 0.0000
vt 0.8165 0.0092 0.0000
vt 0.0482 0.8162 0.0000
vt 0.0483 0.5993 0.0000
vt 0.0987 0.6667 0.0000
vt 0.0987 0.7444 0.0000
vt 0.0000 0.1112 0.0000
vt 0.0000 0.0000 0.0000
vt 0.0446 0.0225 0.0000
vt 0.0446 0.1149 0.0000
vt 0.8156 0.6231 0.0000
vt 0.8156 0.8358 0.0000
vt 0.5054 0.8359 0.0000
vt 0.5054 0.6228 0.0000
vt 0.3102 0.0000 0.0000
vt 0.3102 0.0225 0.0000
vt 0.3102 0.1149 0.0000
vt 0.3102 0.2866 0.0000
vt 0.0000 0.2858 0.0000
vt 0.3585 0.5989 0.0000
vt 0.1850 0.6667 0.0000
vt 0.1850 0.7444 0.0000
vt 0.3585 0.8162 0.0000
vt 0.5965 0.0000 0.0000
vt 0.5973 0.3102 0.0000
vt 0.3124 0.3102 0.0000
vt 0.3124 0.0000 0.0000
# 92 texture coords

o Room_010
g Room_010
usemtl Material__652
s off
f 90/225/81 91/226/81 92/227/81 
f 93/228/82 94/229/82 95/230/82 96/231/82 
f 91/232/83 97/233/83 98/234/84 99/235/84 
f 100/236/84 101/237/84 102/238/83 90/239/83 
f 96/240/85 95/241/85 103/242/85 
f 100/236/84 99/235/84 98/234/84 101/237/84 
f 90/243/86 92/244/86 94/229/82 
f 91/232/83 90/239/83 102/238/83 97/233/83 
f 104/245/87 91/246/87 99/247/87 103/248/87 
f 105/249/85 104/250/85 103/242/85 
f 95/241/85 105/249/85 103/242/85 
f 91/226/81 104/251/81 105/252/81 92/227/81 
f 100/253/82 90/243/86 94/229/82 93/228/82 
f 98/254/88 97/255/88 106/256/88 107/257/88 
f 101/258/89 98/259/89 107/260/89 108/261/89 
f 102/262/90 101/263/90 108/264/90 109/265/90 
f 97/266/81 102/267/81 109/268/81 106/269/81 
f 92/227/81 105/252/81 110/270/81 111/271/81 
f 105/249/91 95/241/91 112/272/91 110/273/91 
f 95/274/89 94/275/89 113/276/89 112/277/89 
f 94/278/92 92/279/92 111/280/92 113/281/92 
f 93/282/93 96/283/93 114/284/93 115/285/93 
f 96/283/93 103/286/93 116/287/93 114/284/93 
f 99/288/94 100/289/94 117/290/94 118/291/94 
f 103/286/81 99/288/81 118/291/81 116/287/81 
f 100/289/95 93/282/95 115/285/95 117/290/95 
f 118/292/96 117/293/96 108/294/96 107/295/96 
s 1
f 115/296/97 114/297/97 112/298/97 113/299/97 
s off
f 114/300/98 116/301/98 119/302/98 120/303/98 
s 2
f 114/297/97 120/304/97 110/305/97 112/298/97 
s off
f 113/299/97 111/306/97 121/307/97 117/308/97 
s 2
f 113/299/97 117/308/97 115/296/97 
s off
f 117/293/96 121/309/96 109/310/96 108/294/96 
f 107/295/96 106/311/96 122/312/96 118/292/96 
f 122/312/96 106/311/96 109/310/96 121/309/96 
s 2
f 118/313/99 122/314/99 119/315/99 116/316/99 
# 30 polygons - 6 triangles

